<mxfile host="app.diagrams.net" modified="2023-07-20T21:50:44.186Z" agent="Mozilla/5.0 (Windows NT 10.0; Win64; x64) AppleWebKit/537.36 (KHTML, like Gecko) Chrome/115.0.0.0 Safari/537.36" version="21.6.3" etag="bcr7AS2Fxj08DLvg2gTI" type="github">
  <diagram name="Page-1" id="PXMcLI-6WYORSYQBTwXQ">
    <mxGraphModel>
      <root>
        <mxCell id="0" />
        <mxCell id="1" parent="0" />
      </root>
    </mxGraphModel>
  </diagram>
</mxfile>
